<svg width="21" height="21" viewBox="0 0 21 21" fill="none" xmlns="http://www.w3.org/2000/svg">
<path d="M12.6262 16.4675C12.46 16.4675 12.2937 16.4062 12.1625 16.275C11.9087 16.0212 11.9087 15.6012 12.1625 15.3475L17.01 10.5L12.1625 5.65248C11.9087 5.39873 11.9087 4.97873 12.1625 4.72498C12.4162 4.47123 12.8362 4.47123 13.09 4.72498L18.4012 10.0362C18.655 10.29 18.655 10.71 18.4012 10.9637L13.09 16.275C12.9587 16.4062 12.7925 16.4675 12.6262 16.4675Z" fill="#E5E5E5"/>
<path d="M17.7887 11.1562H3.0625C2.70375 11.1562 2.40625 10.8587 2.40625 10.5C2.40625 10.1413 2.70375 9.84375 3.0625 9.84375H17.7887C18.1475 9.84375 18.445 10.1413 18.445 10.5C18.445 10.8587 18.1475 11.1562 17.7887 11.1562Z" fill="#E5E5E5"/>
</svg>
